<mxfile host="app.diagrams.net" modified="2024-06-29T18:58:09.709Z" agent="Mozilla/5.0 (X11; Linux x86_64) AppleWebKit/537.36 (KHTML, like Gecko) Chrome/125.0.0.0 Safari/537.36" etag="4T-JVIvq9OnH4PgVDBdz" version="24.6.4" type="device">
  <diagram name="Page-1" id="hq8nFyAIzTAOoYWbGsec">
    <mxGraphModel dx="552" dy="311" grid="1" gridSize="10" guides="1" tooltips="1" connect="1" arrows="1" fold="1" page="1" pageScale="1" pageWidth="850" pageHeight="1100" math="0" shadow="0">
      <root>
        <mxCell id="0" />
        <mxCell id="1" parent="0" />
        <mxCell id="h_cBuWbBbMS8HsexpyVf-1" value="measuredSpeed != 0 then doorState = &quot;closed&quot;" style="shape=parallelogram;perimeter=parallelogramPerimeter;whiteSpace=wrap;html=1;fixedSize=1;" vertex="1" parent="1">
          <mxGeometry x="290" y="80" width="340" height="40" as="geometry" />
        </mxCell>
        <mxCell id="h_cBuWbBbMS8HsexpyVf-2" value="Maintain [door state closed while non-zero measure speed" style="text;html=1;align=center;verticalAlign=middle;resizable=0;points=[];autosize=1;strokeColor=none;fillColor=none;fontSize=10;fontColor=#6666FF;" vertex="1" parent="1">
          <mxGeometry x="325" y="50" width="280" height="30" as="geometry" />
        </mxCell>
        <mxCell id="h_cBuWbBbMS8HsexpyVf-4" style="edgeStyle=orthogonalEdgeStyle;rounded=0;orthogonalLoop=1;jettySize=auto;html=1;entryX=0.5;entryY=1;entryDx=0;entryDy=0;" edge="1" parent="1" source="h_cBuWbBbMS8HsexpyVf-3" target="h_cBuWbBbMS8HsexpyVf-1">
          <mxGeometry relative="1" as="geometry">
            <Array as="points">
              <mxPoint x="420" y="180" />
              <mxPoint x="420" y="140" />
              <mxPoint x="460" y="140" />
            </Array>
          </mxGeometry>
        </mxCell>
        <mxCell id="h_cBuWbBbMS8HsexpyVf-3" value="Train controller" style="shape=hexagon;perimeter=hexagonPerimeter2;whiteSpace=wrap;html=1;fixedSize=1;" vertex="1" parent="1">
          <mxGeometry x="450" y="170" width="120" height="40" as="geometry" />
        </mxCell>
        <mxCell id="h_cBuWbBbMS8HsexpyVf-8" value="" style="ellipse;whiteSpace=wrap;html=1;aspect=fixed;" vertex="1" parent="1">
          <mxGeometry x="415" y="155" width="10" height="10" as="geometry" />
        </mxCell>
        <mxCell id="h_cBuWbBbMS8HsexpyVf-11" style="edgeStyle=orthogonalEdgeStyle;rounded=0;orthogonalLoop=1;jettySize=auto;html=1;exitX=0.75;exitY=0;exitDx=0;exitDy=0;entryX=0;entryY=0.5;entryDx=0;entryDy=0;dashed=1;startArrow=none;startFill=0;endArrow=none;endFill=0;" edge="1" parent="1" source="h_cBuWbBbMS8HsexpyVf-10" target="h_cBuWbBbMS8HsexpyVf-8">
          <mxGeometry relative="1" as="geometry" />
        </mxCell>
        <mxCell id="h_cBuWbBbMS8HsexpyVf-10" value="The train controller on board of a train is responsible for the goal on this train" style="rounded=1;whiteSpace=wrap;html=1;dashed=1;" vertex="1" parent="1">
          <mxGeometry x="150" y="190" width="250" height="60" as="geometry" />
        </mxCell>
        <mxCell id="h_cBuWbBbMS8HsexpyVf-12" value="Responsibility" style="text;html=1;align=center;verticalAlign=middle;resizable=0;points=[];autosize=1;strokeColor=none;fillColor=none;fontSize=6;" vertex="1" parent="1">
          <mxGeometry x="470" y="145" width="60" height="20" as="geometry" />
        </mxCell>
        <mxCell id="h_cBuWbBbMS8HsexpyVf-14" style="edgeStyle=orthogonalEdgeStyle;rounded=0;orthogonalLoop=1;jettySize=auto;html=1;entryX=0.981;entryY=0.655;entryDx=0;entryDy=0;entryPerimeter=0;endArrow=none;endFill=0;startArrow=none;startFill=0;dashed=1;" edge="1" parent="1" source="h_cBuWbBbMS8HsexpyVf-12" target="h_cBuWbBbMS8HsexpyVf-8">
          <mxGeometry relative="1" as="geometry" />
        </mxCell>
        <mxCell id="h_cBuWbBbMS8HsexpyVf-16" style="edgeStyle=orthogonalEdgeStyle;rounded=0;orthogonalLoop=1;jettySize=auto;html=1;entryX=0.5;entryY=1;entryDx=0;entryDy=0;endArrow=none;endFill=0;dashed=1;" edge="1" parent="1" source="h_cBuWbBbMS8HsexpyVf-15" target="h_cBuWbBbMS8HsexpyVf-8">
          <mxGeometry relative="1" as="geometry">
            <Array as="points">
              <mxPoint x="410" y="245" />
              <mxPoint x="410" y="165" />
            </Array>
          </mxGeometry>
        </mxCell>
        <mxCell id="h_cBuWbBbMS8HsexpyVf-15" value="Responsibility instance declaration" style="text;html=1;align=center;verticalAlign=middle;resizable=0;points=[];autosize=1;strokeColor=none;fillColor=none;fontSize=6;" vertex="1" parent="1">
          <mxGeometry x="460" y="230" width="120" height="20" as="geometry" />
        </mxCell>
      </root>
    </mxGraphModel>
  </diagram>
</mxfile>
